# xmcd
#
# Track frame offsets:
#	150
#	24589
#	44239
#	66756
#	88187
#	104505
#	125419
#	143191
#	161525
#	184984
#	206149
#	225510
#	242504
#	261855
#	277054
#
# Disc length: 4003 seconds
#
# Revision: 7
# Processed by: cddbd v1.5PL3 Copyright (c) Steve Scherf et al.
# Submitted via: dBpowerAMP V4.0
#
DISCID=e30fa10f
DTITLE=Tim McGraw - Tiny Dancer
DYEAR=2002
DGENRE=Country
TTITLE0=Comfort Me
TTITLE1=Tickin' Away
TTITLE2=Home
TTITLE3=Red Ragtop
TTITLE4=That's Why God Made Mexico
TTITLE5=Watch the Wind Blow By
TTITLE6=Illegal
TTITLE7=Sleep Tonight
TTITLE8=I Know How to Love You Well
TTITLE9=Sing Me Home
TTITLE10=She's My Kind of Rain
TTITLE11=Who Are They
TTITLE12=Real Good Man
TTITLE13=All We Ever Find
TTITLE14=Tiny Dancer
EXTD=
EXTT0=
EXTT1=
EXTT2=
EXTT3=
EXTT4=
EXTT5=
EXTT6=
EXTT7=
EXTT8=
EXTT9=
EXTT10=
EXTT11=
EXTT12=
EXTT13=
EXTT14=
PLAYORDER=
